<svg xmlns="http://www.w3.org/2000/svg" width="24" height="24" fill="none"><path fill="#D3D1D6" d="M12 24c6.627 0 12-5.373 12-12S18.627 0 12 0 0 5.373 0 12s5.373 12 12 12"/><path fill="#fff" d="M12.564 14.64c-.016-.096-.016-.176-.016-.208 0-.624.272-1.152.8-1.52l.688-.48c.928-.656 1.6-1.552 1.6-2.816 0-1.632-1.28-3.2-3.648-3.2-2.416 0-3.616 1.744-3.616 3.344 0 .256.032.512.096.736l1.808.128c-.064-.176-.096-.48-.096-.72 0-.912.624-1.824 1.808-1.824 1.168 0 1.728.784 1.728 1.616 0 .544-.224 1.008-.752 1.392l-.736.528c-.928.672-1.296 1.456-1.296 2.416 0 .224.016.4.032.608zm-1.952 2.304c0 .64.512 1.168 1.168 1.168.64 0 1.168-.528 1.168-1.168s-.528-1.184-1.168-1.184c-.656 0-1.168.544-1.168 1.184"/></svg>