<svg width="24" height="24" viewBox="0 0 24 24" xmlns="http://www.w3.org/2000/svg">
<path d="M12 24C18.6274 24 24 18.6274 24 12C24 5.37258 18.6274 0 12 0C5.37258 0 0 5.37258 0 12C0 18.6274 5.37258 24 12 24Z" fill="#29B966"/>
<path d="M17.8106 6.18604C17.6521 6.02735 17.4144 5.96564 17.1943 6.01853C17.071 6.0538 16.9918 6.08025 16.9126 6.14196C16.6396 6.23013 16.0674 6.38001 15.5039 6.5387C12.0528 7.47324 8.60163 8.46949 7.53635 9.53627C6.69117 10.3826 6.26858 11.5376 6.33901 12.7983C6.40064 13.8299 6.79682 14.8261 7.45711 15.6637L6.18934 16.9244C5.94283 17.1713 5.93403 17.568 6.18054 17.8149C6.3038 17.9383 6.47107 18 6.62954 18C6.78801 18 6.94648 17.9383 7.06974 17.8149L8.36392 16.5453C9.29714 17.2771 10.4064 17.6562 11.4805 17.6562C12.5898 17.6562 13.6639 17.2594 14.4651 16.4571C15.5303 15.3903 16.5252 11.9343 17.4584 8.4783C17.6081 7.92287 17.7665 7.34099 17.8546 7.06768C17.925 6.99715 17.9514 6.90899 17.9778 6.78556C18.0395 6.58278 17.969 6.34474 17.8106 6.18604ZM7.61558 12.7278C7.56276 11.8373 7.85329 11.0174 8.44316 10.4355C9.29714 9.58035 13.1445 8.49594 15.3719 7.89642L10.9171 12.287V11.229C10.9171 10.8764 10.6353 10.5942 10.2832 10.5942C9.93102 10.5942 9.6493 10.8764 9.6493 11.229V13.5301L8.38153 14.782C7.93253 14.1561 7.6596 13.4596 7.61558 12.7278ZM13.5759 15.5667C12.4842 16.6599 10.6706 16.6599 9.27953 15.6548L10.424 14.5263H12.9596C13.3117 14.5263 13.5935 14.2442 13.5935 13.8916C13.5935 13.5389 13.3117 13.2568 12.9596 13.2568H11.7094L16.0057 9.03374C15.3807 11.3084 14.3682 14.7732 13.5759 15.5667Z" fill="#FDFEFE"/>
</svg>