<svg width="24" height="24" viewBox="0 0 24 24" xmlns="http://www.w3.org/2000/svg">
<path d="M12 24C18.6274 24 24 18.6274 24 12C24 5.37258 18.6274 0 12 0C5.37258 0 0 5.37258 0 12C0 18.6274 5.37258 24 12 24Z" fill="#F0F0F0"/>
<path d="M2.48032 4.6936C1.53771 5.91999 0.826945 7.33351 0.413086 8.86909H6.6558L2.48032 4.6936Z" fill="#0052B4"/>
<path d="M23.5869 8.86914C23.173 7.33361 22.4622 5.92009 21.5196 4.6937L17.3442 8.86914H23.5869Z" fill="#0052B4"/>
<path d="M0.413086 15.1303C0.826992 16.6659 1.53776 18.0794 2.48032 19.3057L6.65566 15.1303H0.413086Z" fill="#0052B4"/>
<path d="M19.3056 2.48037C18.0792 1.53776 16.6657 0.826992 15.1301 0.413086V6.65576L19.3056 2.48037Z" fill="#0052B4"/>
<path d="M4.6936 21.5195C5.91999 22.4621 7.33351 23.1728 8.86904 23.5867V17.3441L4.6936 21.5195Z" fill="#0052B4"/>
<path d="M8.86899 0.413086C7.33346 0.826992 5.91995 1.53776 4.6936 2.48032L8.86899 6.65571V0.413086Z" fill="#0052B4"/>
<path d="M15.1304 23.5867C16.6659 23.1728 18.0794 22.4621 19.3058 21.5195L15.1304 17.3441V23.5867Z" fill="#0052B4"/>
<path d="M17.3442 15.1303L21.5196 19.3058C22.4622 18.0794 23.173 16.6659 23.5869 15.1303H17.3442Z" fill="#0052B4"/>
<path d="M23.8984 10.4348H13.5653H13.5652V0.101578C13.0529 0.034875 12.5305 0 12 0C11.4694 0 10.9471 0.034875 10.4348 0.101578V10.4347V10.4348H0.101578C0.034875 10.9471 0 11.4695 0 12C0 12.5306 0.034875 13.0529 0.101578 13.5652H10.4347H10.4348V23.8984C10.9471 23.9651 11.4694 24 12 24C12.5305 24 13.0529 23.9652 13.5652 23.8984V13.5653V13.5652H23.8984C23.9651 13.0529 24 12.5306 24 12C24 11.4695 23.9651 10.9471 23.8984 10.4348Z" fill="#D80027"/>
<path d="M15.1304 15.1303L20.4852 20.4851C20.7315 20.2389 20.9664 19.9815 21.1906 19.7147L16.6061 15.1302H15.1304V15.1303Z" fill="#D80027"/>
<path d="M8.86901 15.1303H8.86892L3.51416 20.4851C3.76035 20.7314 4.01774 20.9663 4.28455 21.1905L8.86901 16.6059V15.1303Z" fill="#D80027"/>
<path d="M8.87 8.86921V8.86912L3.51519 3.51425C3.26891 3.76044 3.03397 4.01783 2.80981 4.28464L7.39433 8.86916H8.87V8.86921Z" fill="#D80027"/>
<path d="M15.1304 8.87002L20.4852 3.51511C20.239 3.26883 19.9817 3.03389 19.7148 2.80978L15.1304 7.3943V8.87002V8.87002Z" fill="#D80027"/>
</svg>