<svg width="24" height="24" viewBox="0 0 24 24" xmlns="http://www.w3.org/2000/svg">
<circle cx="12" cy="12" r="12" fill="#2A9B5F"/>
<path fill-rule="evenodd" clip-rule="evenodd" d="M11.9999 5.33333C8.31992 5.33333 5.33325 8.31999 5.33325 12C5.33325 15.68 8.31992 18.6667 11.9999 18.6667C15.6799 18.6667 18.6666 15.68 18.6666 12C18.6666 8.31999 15.6799 5.33333 11.9999 5.33333ZM6.66659 12C6.66659 11.5933 6.71992 11.1933 6.80659 10.8133L9.99325 14V14.6667C9.99325 15.4 10.5933 16 11.3266 16V17.2867C8.70659 16.9533 6.66659 14.7133 6.66659 12ZM14.6599 14.6667C15.2599 14.6667 15.7533 15.06 15.9266 15.6C16.7933 14.6533 17.3333 13.3867 17.3333 12C17.3333 9.76666 15.9466 7.84666 13.9933 7.06V7.33333C13.9933 8.06666 13.3933 8.66666 12.6599 8.66666H11.3266V10C11.3266 10.3667 11.0266 10.6667 10.6599 10.6667H9.32659V12H13.3266C13.6933 12 13.9933 12.3 13.9933 12.6667V14.6667H14.6599Z" fill="white"/>
</svg>