<?xml version="1.0" encoding="utf-8"?>
<svg xmlns="http://www.w3.org/2000/svg" viewBox="0 0 500 500">
  <ellipse style="fill: rgb(166, 98, 26); stroke: rgb(166, 98, 26);" cx="248.667" cy="247.906" rx="250.196" ry="249.429" transform="matrix(1, 0, 0.003143, 1, 0.746536, 2.28484)"/>
  <g id="museum" transform="matrix(1, 0, 0, 1, 60.929159, 42.650441)">
    <path class="st0" d="M 303.111 274.534 L 302.911 274.534 L 302.911 268.746 L 302.911 265.308 L 302.911 258.407 C 302.911 255.615 301.678 253.112 299.724 251.413 C 298.873 249.192 297.441 247.236 295.605 245.72 L 295.605 191.246 C 297.442 189.73 298.876 187.773 299.726 185.551 C 301.678 183.852 302.913 181.349 302.913 178.558 L 302.913 172.164 L 302.918 172.164 L 302.918 159.661 C 308.553 156.513 312.38 150.505 312.38 143.604 C 312.38 140.357 310.681 137.347 307.9 135.668 L 199 69.963 C 197.528 69.074 195.87 68.63 194.212 68.63 C 192.555 68.63 190.897 69.074 189.424 69.963 L 80.524 135.669 C 77.744 137.347 76.044 140.358 76.044 143.605 C 76.044 150.426 79.783 156.377 85.312 159.554 L 85.312 172.396 L 85.512 172.396 L 85.512 178.558 C 85.512 181.349 86.744 183.85 88.696 185.55 C 89.547 187.773 90.981 189.73 92.818 191.246 L 92.818 245.721 C 90.982 247.238 89.548 249.193 88.697 251.414 C 86.745 253.112 85.512 255.616 85.512 258.407 L 85.512 259.746 L 85.512 268.747 L 85.512 274.535 L 85.313 274.535 C 80.194 274.535 76.045 278.685 76.045 283.804 L 76.044 301.054 C 76.044 311.387 84.451 319.794 94.785 319.794 L 293.639 319.794 C 303.973 319.794 312.379 311.387 312.379 301.054 L 312.379 283.804 C 312.38 278.685 308.229 274.534 303.111 274.534 Z M 168.816 245.72 C 166.98 247.237 165.546 249.192 164.695 251.413 C 162.743 253.111 161.509 255.615 161.509 258.406 L 161.509 263.337 L 161.509 268.746 L 161.509 274.534 L 150.919 274.534 L 150.919 260.673 L 150.915 260.673 L 150.915 258.406 C 150.915 255.614 149.681 253.11 147.729 251.412 C 146.878 249.19 145.444 247.235 143.608 245.719 L 143.608 191.246 C 145.445 189.729 146.879 187.772 147.731 185.549 C 149.682 183.85 150.916 181.347 150.916 178.556 L 150.916 175.522 L 150.948 175.522 L 150.948 162.006 L 161.473 162.006 L 161.473 172.163 L 161.509 172.163 L 161.509 178.557 C 161.509 181.348 162.742 183.849 164.693 185.549 C 165.545 187.772 166.978 189.729 168.816 191.245 L 168.816 245.72 L 168.816 245.72 Z M 219.607 191.246 C 221.445 189.729 222.879 187.772 223.731 185.548 C 225.681 183.848 226.915 181.347 226.915 178.556 L 226.932 162.005 L 237.462 162.005 L 237.508 178.556 C 237.508 181.347 238.74 183.85 240.693 185.549 C 241.545 187.772 242.977 189.728 244.814 191.244 L 244.814 245.719 C 242.979 247.236 241.546 249.191 240.695 251.411 C 238.742 253.109 237.508 255.613 237.508 258.405 L 237.508 264.842 L 237.508 268.745 L 237.508 274.533 L 226.913 274.533 L 226.913 268.745 L 226.913 262.525 L 226.913 258.405 C 226.913 255.613 225.68 253.109 223.727 251.411 C 222.875 249.189 221.443 247.234 219.607 245.718 L 219.607 191.246 L 219.607 191.246 Z" style="fill: rgb(255, 255, 255);"/>
    <g transform="matrix(1, 0, 0, 1, 64.12475, 66.211786)">
      <path class="st1" d="M21.187,234.378c0,5.23,4.241,9.473,9.473,9.473h198.855c5.231,0,9.472-4.242,9.472-9.473v-7.781 c0-5.229-4.24-9.471-9.472-9.471H30.661c-5.232,0-9.473,4.241-9.473,9.471L21.187,234.378L21.187,234.378z" style="fill: rgb(214, 214, 214);"/>
    </g>
    <path class="st1" d="M 194.211 77.435 L 85.312 143.141 C 85.312 148.185 89.401 152.274 94.445 152.274 L 293.979 152.274 C 299.02 152.274 303.112 148.185 303.112 143.141 L 194.211 77.435 Z" style="fill: rgb(214, 214, 214);"/>
    <g transform="matrix(1, 0, 0, 1, 64.12475, 66.211786)">
      <path class="st1" d="M75.211,114.151v-2.27h2.312v-10.34H58.651h-9.125H30.655v10.34h2.312v2.27c0,2.461,2.234,4.455,4.994,4.465 v66.382c-2.761,0.01-4.994,2.003-4.994,4.464v2.269h-2.312v10.34h46.868v-10.34h-2.311v-2.269H75.21 c0-2.461-2.233-4.455-4.994-4.464v-66.382C72.977,118.606,75.211,116.612,75.211,114.151z" style="fill: rgb(214, 214, 214);"/>
      <g>
        <path class="st1" d="M227.207,114.151v-2.27h2.312v-10.34h-18.872h-9.125H182.65v10.34h2.313v2.27 c0,2.461,2.233,4.455,4.994,4.465v66.382c-2.762,0.01-4.994,2.003-4.994,4.464v2.269h-2.313v10.34h46.868v-10.34h-2.312v-2.269 h-0.001c0-2.461-2.234-4.455-4.994-4.464v-66.382C224.972,118.606,227.207,116.612,227.207,114.151z" style="fill: rgb(214, 214, 214);"/>
      </g>
      <g>
        <path class="st1" d="M151.209,114.151v-2.27h2.312v-10.34h-18.872h-9.124h-18.872v10.34h2.312v2.27 c0,2.461,2.235,4.455,4.995,4.465v66.382c-2.76,0.01-4.995,2.003-4.995,4.464v2.269h-2.312v10.34h46.867v-10.34h-2.311v-2.269 h-0.001c0-2.461-2.232-4.455-4.995-4.464v-66.382C148.976,118.606,151.209,116.612,151.209,114.151z" style="fill: rgb(214, 214, 214);"/>
      </g>
    </g>
    <rect x="85.313" y="283.34" class="st1" width="217.798" height="11.43" style="fill: rgb(214, 214, 214);"/>
  </g>
</svg>