<svg width="24" height="24" viewBox="0 0 24 24" xmlns="http://www.w3.org/2000/svg">
<path d="M12 24C18.6274 24 24 18.6274 24 12C24 5.37258 18.6274 0 12 0C5.37258 0 0 5.37258 0 12C0 18.6274 5.37258 24 12 24Z" fill="#20B6F8"/>
<path d="M11.82 15.6225L13.9425 13.5L11.82 11.3775L12.8775 10.32L15 12.4425L17.1225 10.32L18.18 11.3775L16.0575 13.5L18.18 15.6225L17.1225 16.68L15 14.5575L12.8775 16.68L11.82 15.6225ZM4.5 11.25H6.75L8.4675 15.3L10.5 7.5H19.5V9H11.6625L9.51 17.25H7.665L5.76 12.75H4.5V11.25Z" fill="white"/>
</svg>