<svg width="24" height="24" viewBox="0 0 24 24" fill="none" xmlns="http://www.w3.org/2000/svg">
<path d="M12 24C18.6274 24 24 18.6274 24 12C24 5.37258 18.6274 0 12 0C5.37258 0 0 5.37258 0 12C0 18.6274 5.37258 24 12 24Z" fill="#F0F0F0"/>
<path d="M12 8.86947H23.5866C23.2857 7.75319 22.8284 6.70127 22.2387 5.73901H12V8.86947Z" fill="#338AF3"/>
<path d="M4.52997 21.3914H19.4696C20.5648 20.5191 21.504 19.4597 22.2385 18.2609H1.76111C2.49569 19.4596 3.43487 20.5191 4.52997 21.3914Z" fill="#338AF3"/>
<path d="M4.17372 2.90343C3.23031 3.71582 2.41473 4.67249 1.76111 5.73917H4.17372V2.90343Z" fill="#338AF3"/>
<path d="M12 12C12 10.7777 12 9.7547 12 8.86951H7.30434V12H4.17389V8.86951H0.413391C0.144375 9.86767 0 10.9168 0 12C0 13.0831 0.144375 14.1323 0.413391 15.1304H23.5867C23.8556 14.1323 24 13.0831 24 12H12Z" fill="#338AF3"/>
<path d="M11.9999 0C10.3335 0 8.74654 0.339984 7.3042 0.953812V5.73914H11.9999C11.9999 4.64639 11.9999 3.717 11.9999 2.60869H19.4697C17.4198 0.976125 14.824 0 11.9999 0Z" fill="#338AF3"/>
</svg>