<svg width="24" height="24" viewBox="0 0 24 24" fill="none" xmlns="http://www.w3.org/2000/svg">
<path d="M12 24C18.6274 24 24 18.6274 24 12C24 5.37258 18.6274 0 12 0C5.37258 0 0 5.37258 0 12C0 18.6274 5.37258 24 12 24Z" fill="#FD6DFC"/>
<path d="M16.8699 16.17L12.5899 5.17C12.4999 4.93 12.2599 4.77 11.9999 4.77C11.7399 4.77 11.4999 4.93 11.4099 5.17L7.12991 16.17H5.65991V17.44H7.55991H9.45991V16.17H8.48991L10.7499 10.37L13.3099 17.03C13.3999 17.27 13.6399 17.44 13.8999 17.44H16.4299H18.3299V16.17H16.8699ZM11.4299 8.62L11.9999 7.15L15.5099 16.18H14.3399L11.4299 8.62Z" fill="#FDFEFE"/>
</svg>