<svg width="24" height="24" viewBox="0 0 24 24" xmlns="http://www.w3.org/2000/svg">
<path d="M0.746582 16.1739C2.4421 20.7435 6.84061 24 12.0002 24C17.1598 24 21.5583 20.7435 23.2538 16.1739L12.0002 15.1305L0.746582 16.1739Z" fill="#FFDA44"/>
<path d="M12.0002 0C6.84061 0 2.4421 3.2565 0.746582 7.82611L12.0002 8.86955L23.2538 7.82606C21.5583 3.2565 17.1598 0 12.0002 0Z" fill="black"/>
<path d="M0.746391 7.82608C0.264047 9.12606 0 10.5321 0 12C0 13.4678 0.264047 14.8739 0.746391 16.1739H23.2537C23.736 14.8739 24 13.4678 24 12C24 10.5321 23.736 9.12606 23.2536 7.82608H0.746391Z" fill="#D80027"/>
</svg>