<svg version="1.1" xmlns="http://www.w3.org/2000/svg" xmlns:xlink="http://www.w3.org/1999/xlink" width="61.65196" height="43.88222" viewBox="0,0,61.65196,43.88222"><g transform="translate(-209.17402,-158.05889)"><g stroke="none" stroke-miterlimit="10"><path d="M211.97425,201.94111c-1.513,0 -2.73953,-1.22653 -2.73953,-2.73953v-38.33415c0,-1.513 1.22653,-2.73953 2.73953,-2.73953h56.11221c1.513,0 2.73953,1.22653 2.73953,2.73953v38.33415c0,1.513 -1.22653,2.73953 -2.73953,2.73953z" fill="#d2423f"/><path d="M210.36389,201.40219c-1.58469,-1.15484 -1.12917,0.87896 -1.12917,-40.54117c0.00169,-0.7288 0.29371,-1.42689 0.81145,-1.93982c0.51775,-0.51293 1.21853,-0.79842 1.94732,-0.79329c60.55833,0 57.14515,-0.4876 58.32564,1.12917c-1.07143,-0.76989 2.86143,-0.53251 -57.74181,-0.53251c-1.513,0 -2.73953,1.22653 -2.73953,2.73953c0,41.59977 -0.23097,38.90515 0.52609,39.93809z" fill="#dd6966"/><path d="M270.82598,160.86102v38.34056c0,1.513 -1.22653,2.73953 -2.73953,2.73953h-56.11221c-1.513,0 -2.73953,-1.22653 -2.73953,-2.73953v-0.64158c0.30322,1.21686 1.39565,2.07123 2.64971,2.07229h54.2773c1.513,0 2.73953,-1.22653 2.73953,-2.73953v-37.03175c-0.00354,-1.51049 -1.22903,-2.73312 -2.73953,-2.73311h1.92473c1.5105,-0.00001 2.73599,1.22262 2.73953,2.73311z" fill="#ba3b38"/><path d="M239.02308,201.94111v-43.8132h2.05304v43.8132z" fill="#333333"/><path d="M239.02308,201.9347v-1.3024h2.05304v1.3024z" fill="#333333"/><path d="M211.97425,162.22758c0,-0.75473 0.61183,-1.36656 1.36656,-1.36656h53.3791c0.75473,0 1.36656,0.61183 1.36656,1.36656v35.60103c0,0.75473 -0.61183,1.36656 -1.36656,1.36656h-53.3791c-0.75473,0 -1.36656,-0.61183 -1.36656,-1.36656z" fill="#efd3b6"/><path d="M212.65432,198.99628c-0.9752,-0.57742 -0.68007,1.60394 -0.68007,-36.77512c0,-0.75473 0.61183,-1.36656 1.36656,-1.36656c57.53009,0 53.9501,-0.30796 54.53393,0.68007c-0.50684,-0.30154 3.03465,-0.19247 -54.06558,-0.19247c-0.75473,0 -1.36656,0.61183 -1.36656,1.36656c0,37.9492 -0.09624,35.78709 0.21172,36.28752z" fill="#f7e9da"/><path d="M267.68848,161.26354c0.25646,0.25767 0.39969,0.6069 0.39798,0.97045v35.60103c0,0.75473 -0.61183,1.36656 -1.36656,1.36656h-26.68955v-38.34056h26.68955c0.36355,-0.00001 0.71211,0.14485 0.96857,0.40252z" fill="#e8bc91"/><path d="M240.0496,161.34862v-0.4876c29.23019,0 27.26055,-0.30796 27.84438,0.68007c-0.51326,-0.30154 1.3024,-0.19247 -27.84438,-0.19247z" fill="#efd3b6"/><path d="M234.61545,177.98468h-17.96412c-0.70867,0 -1.28315,-0.57449 -1.28315,-1.28315c0,-0.70867 0.57449,-1.28315 1.28315,-1.28315h17.96412c0.70867,0 1.28315,0.57449 1.28315,1.28315c0,0.70867 -0.57449,1.28315 -1.28315,1.28315z" fill="#333333"/><path d="M234.61545,191.29737h-17.96412c-0.70867,0 -1.28315,-0.57449 -1.28315,-1.28315c0,-0.70867 0.57449,-1.28315 1.28315,-1.28315h17.96412c0.70867,0 1.28315,0.57449 1.28315,1.28315c0,0.70867 -0.57449,1.28315 -1.28315,1.28315z" fill="#333333"/><path d="M234.61545,184.64423h-17.96412c-0.70867,0 -1.28315,-0.57449 -1.28315,-1.28315c0,-0.70867 0.57449,-1.28315 1.28315,-1.28315h17.96412c0.70867,0 1.28315,0.57449 1.28315,1.28315c0,0.70867 -0.57449,1.28315 -1.28315,1.28315z" fill="#333333"/><path d="M234.61545,171.33154h-17.96412c-0.70867,0 -1.28315,-0.57449 -1.28315,-1.28315c0,-0.70867 0.57449,-1.28315 1.28315,-1.28315h17.96412c0.70867,0 1.28315,0.57449 1.28315,1.28315c0,0.70867 -0.57449,1.28315 -1.28315,1.28315z" fill="#333333"/><path d="M263.03725,177.98468h-17.96412c-0.70867,0 -1.28315,-0.57449 -1.28315,-1.28315c0,-0.70867 0.57449,-1.28315 1.28315,-1.28315h17.96412c0.70867,0 1.28315,0.57449 1.28315,1.28315c0,0.70867 -0.57449,1.28315 -1.28315,1.28315z" fill="#333333"/><path d="M263.03725,191.29737h-17.96412c-0.70867,0 -1.28315,-0.57449 -1.28315,-1.28315c0,-0.70867 0.57449,-1.28315 1.28315,-1.28315h17.96412c0.70867,0 1.28315,0.57449 1.28315,1.28315c0,0.70867 -0.57449,1.28315 -1.28315,1.28315z" fill="#333333"/><path d="M263.03725,184.64423h-17.96412c-0.70867,0 -1.28315,-0.57449 -1.28315,-1.28315c0,-0.70867 0.57449,-1.28315 1.28315,-1.28315h17.96412c0.70867,0 1.28315,0.57449 1.28315,1.28315c0,0.70867 -0.57449,1.28315 -1.28315,1.28315z" fill="#333333"/><path d="M263.03725,171.33154h-17.96412c-0.70867,0 -1.28315,-0.57449 -1.28315,-1.28315c0,-0.70867 0.57449,-1.28315 1.28315,-1.28315h17.96412c0.70867,0 1.28315,0.57449 1.28315,1.28315c0,0.70867 -0.57449,1.28315 -1.28315,1.28315z" fill="#333333"/><path d="M267.68848,161.26354c0.25646,0.25767 0.39969,0.6069 0.39798,0.97045v35.59462c0,0.75473 -0.61183,1.36656 -1.36656,1.36656h-26.68955v-1.16767l24.98296,-0.6095c0.72261,0.01083 1.31993,-0.56076 1.34089,-1.28315v-33.99068c-0.02097,-0.72239 -0.61828,-1.29398 -1.34089,-1.28315h1.70659c0.36355,-0.00001 0.71211,0.14485 0.96857,0.40252z" fill="#e0a66d"/><path d="M240.03035,198.0275v1.17408c-34.94021,0 -36.24261,0.37211 0,-1.17408z" fill="#e8bc91"/></g></g></svg>